# xmcd CD database file
#
# Track frame offsets:
#	150
#	13712
#	28623
#	46262
#	61831
#	72919
#	88737
#	109568
#	120861
#	138522
#	158876
#	175726
#
# Disc length: 2691 seconds
#
# Revision: 1
# Processed by: cddbd v1.5.2PL0 Copyright (c) Steve Scherf et al.
# Submitted via: CDex 1.70beta2
#
DISCID=920a810c
DTITLE=Yuhki Kuramoto - Piano Poem
DYEAR=2010
DGENRE=New Age
TTITLE0=Gentle Song I
TTITLE1=Love Song
TTITLE2=On A Sentimental Snowy Day
TTITLE3=Longing For An Encounter
TTITLE4=Taking A Ship
TTITLE5=Tales By A Fireplace
TTITLE6=Under The Moonlight
TTITLE7=Promenade
TTITLE8=I Suppose Flowers Will Fall Down
TTITLE9=With A Soft Song
TTITLE10=In The Evening
TTITLE11=Lonely Passing Through The Flower Valley
EXTD=YEAR: 2010
EXTT0=
EXTT1=
EXTT2=
EXTT3=
EXTT4=
EXTT5=
EXTT6=
EXTT7=
EXTT8=
EXTT9=
EXTT10=
EXTT11=
PLAYORDER=
